<svg xmlns="http://www.w3.org/2000/svg" viewBox="0 0 160 160" fill="none">
  <circle cx="80" cy="80" r="76" fill="#18181b"/>
  <!-- Ears -->
  <polygon points="35,60 50,20 70,50" fill="#18181b"/>
  <polygon points="40,55 50,28 64,48" fill="#f472b6"/>
  <polygon points="125,60 110,20 90,50" fill="#18181b"/>
  <polygon points="120,55 110,28 96,48" fill="#f472b6"/>
  <!-- Face & White Mask -->
  <circle cx="80" cy="88" r="48" fill="#18181b"/>
  <path d="M80 65 L60 130 L100 130 Z" fill="#ffffff"/>
  <!-- Eyes -->
  <ellipse cx="62" cy="82" rx="9" ry="12" fill="#a3e635"/>
  <ellipse cx="98" cy="82" rx="9" ry="12" fill="#a3e635"/>
  <ellipse cx="62" cy="82" rx="4" ry="10" fill="#111827"/>
  <ellipse cx="98" cy="82" rx="4" ry="10" fill="#111827"/>
  <!-- Pink Nose & Whiskers -->
  <polygon points="76,104 84,104 80,109" fill="#f472b6"/>
  <line x1="40" y1="106" x2="68" y2="106" stroke="#e4e4e7" stroke-width="2"/>
  <line x1="120" y1="106" x2="92" y2="106" stroke="#e4e4e7" stroke-width="2"/>
</svg>