<svg xmlns="http://www.w3.org/2000/svg" viewBox="0 0 340 400" fill="none">
  <rect width="340" height="400" fill="#064e3b"/>
  <!-- Lush rainforest canopy -->
  <circle cx="70" cy="60" r="70" fill="#047857"/>
  <circle cx="260" cy="60" r="75" fill="#065f46"/>
  <circle cx="160" cy="80" r="60" fill="#059669"/>
  <circle cx="40" cy="200" r="60" fill="#047857"/>
  <circle cx="300" cy="210" r="65" fill="#065f46"/>
  <!-- Wooden boardwalk path curving down -->
  <path d="M160 160 Q170 240 130 400 L240 400 Q200 240 180 160 Z" fill="#b45309"/>
  <line x1="155" y1="180" x2="185" y2="180" stroke="#78350f" stroke-width="4"/><line x1="152" y1="202" x2="191" y2="202" stroke="#78350f" stroke-width="4"/><line x1="149" y1="224" x2="197" y2="224" stroke="#78350f" stroke-width="4"/><line x1="146" y1="246" x2="203" y2="246" stroke="#78350f" stroke-width="4"/><line x1="143" y1="268" x2="209" y2="268" stroke="#78350f" stroke-width="4"/><line x1="140" y1="290" x2="215" y2="290" stroke="#78350f" stroke-width="4"/><line x1="137" y1="312" x2="221" y2="312" stroke="#78350f" stroke-width="4"/><line x1="134" y1="334" x2="227" y2="334" stroke="#78350f" stroke-width="4"/><line x1="131" y1="356" x2="233" y2="356" stroke="#78350f" stroke-width="4"/><line x1="128" y1="378" x2="239" y2="378" stroke="#78350f" stroke-width="4"/>
  <!-- Mari walking on boardwalk in pink jacket -->
  <circle cx="170" cy="230" r="10" fill="#fed7aa"/>
  <rect x="162" y="240" width="16" height="24" rx="4" fill="#ec4899"/>
</svg>