<svg xmlns="http://www.w3.org/2000/svg" viewBox="0 0 60 60" fill="none">
  <circle cx="30" cy="30" r="28" fill="#ffffff" stroke="#e2e8f0" stroke-width="2"/>
  <clipPath id="circleClip">
    <circle cx="30" cy="30" r="28"/>
  </clipPath>
  <g clip-path="url(#circleClip)">
    <!-- Red and white stripes -->
    <rect x="0" y="0" width="60" height="3.5" fill="#dc2626"/><rect x="0" y="7" width="60" height="3.5" fill="#dc2626"/><rect x="0" y="14" width="60" height="3.5" fill="#dc2626"/><rect x="0" y="21" width="60" height="3.5" fill="#dc2626"/><rect x="0" y="28" width="60" height="3.5" fill="#dc2626"/><rect x="0" y="35" width="60" height="3.5" fill="#dc2626"/><rect x="0" y="42" width="60" height="3.5" fill="#dc2626"/><rect x="0" y="49" width="60" height="3.5" fill="#dc2626"/><rect x="0" y="56" width="60" height="3.5" fill="#dc2626"/>
    <!-- Blue canton -->
    <rect x="0" y="0" width="28" height="28" fill="#1d4ed8"/>
    <!-- Stars -->
    <circle cx="8" cy="8" r="2" fill="#fff"/>
    <circle cx="20" cy="8" r="2" fill="#fff"/>
    <circle cx="14" cy="14" r="2" fill="#fff"/>
    <circle cx="8" cy="20" r="2" fill="#fff"/>
    <circle cx="20" cy="20" r="2" fill="#fff"/>
  </g>
</svg>